<?xml version="1.0" ?><svg style="enable-background:new 0 0 64 64;" version="1.1" viewBox="0 0 64 64" xml:space="preserve" xmlns="http://www.w3.org/2000/svg" xmlns:xlink="http://www.w3.org/1999/xlink"><style type="text/css">
	.st0{fill:#231F20;}
</style><g id="FB"/><g id="ig"/><g id="yt"/><g id="twitter"/><g id="snapchat"/><g id="WA"/><g id="Pinterrest"/><g id="LinkedIn"/><g id="Messenger"/><g id="Tiktok"/><g id="VK"/><g id="Thumblr"/><g id="OK.ru"><g><g><g><path d="M32,30c-8,0-14.5-6.5-14.5-14.5S24,1,32,1s14.5,6.5,14.5,14.5S40,30,32,30z M32,3c-6.9,0-12.5,5.6-12.5,12.5      S25.1,28,32,28s12.5-5.6,12.5-12.5S38.9,3,32,3z M32,21c-3,0-5.5-2.5-5.5-5.5S29,10,32,10s5.5,2.5,5.5,5.5S35,21,32,21z M32,12      c-1.9,0-3.5,1.6-3.5,3.5S30.1,19,32,19s3.5-1.6,3.5-3.5S33.9,12,32,12z"/></g></g><path d="M51.7,35.8c0.4-1.4,0.2-2.8-0.5-4.1c-1.4-2.6-4.7-3.5-7.3-2.1c-7.4,4.1-16.5,4.1-23.8-0.1c-1.3-0.7-2.7-0.9-4.1-0.5    c-1.4,0.4-2.5,1.3-3.2,2.5c-0.7,1.2-0.9,2.7-0.5,4.1c0.4,1.4,1.3,2.5,2.5,3.2c2.9,1.7,6.1,2.9,9.4,3.6l-9.4,11.7    c-1.5,1.9-1.6,4.9-0.2,6.7c1,1.4,2.6,2.1,4.3,2.1c1.6,0,3.2-0.7,4.2-2l8.8-11l8.9,11c1.1,1.3,2.7,2.1,4.4,2c1.7-0.1,3.3-1,4.3-2.5    c1.3-1.9,1.1-4.5-0.5-6.4l-9.4-11.6c3.3-0.7,6.5-1.9,9.5-3.6C50.4,38.3,51.3,37.1,51.7,35.8z M48.2,37.2c-3.3,1.8-6.8,3-10.5,3.7    c0,0,0,0,0,0c-0.2,0-0.3,0.1-0.4,0.2c-0.4,0.4-0.5,1-0.2,1.4l0.4,0.4l10.1,12.5c1,1.2,1.1,2.8,0.3,4c-0.6,1-1.6,1.5-2.7,1.6    c-1.1,0.1-2.1-0.4-2.8-1.2l-9.7-11.9c-0.2-0.2-0.4-0.4-0.8-0.4c-0.3,0-0.6,0.1-0.8,0.4l-9.6,11.9C20.9,60.5,20,61,18.9,61    c-1.1,0-2-0.5-2.7-1.4c-0.8-1.1-0.7-3.1,0.2-4.2l10-12.5l0.4-0.5c0.4-0.4,0.3-1.1-0.1-1.4c-0.1-0.1-0.3-0.2-0.5-0.2h0    c-3.6-0.7-7.1-1.9-10.4-3.7c-0.8-0.5-1.3-1.2-1.6-2c-0.2-0.9-0.1-1.8,0.3-2.6c0.4-0.8,1.2-1.3,2-1.6c0.3-0.1,0.6-0.1,0.9-0.1    c0.6,0,1.1,0.2,1.7,0.4c7.9,4.5,17.8,4.5,25.7,0.1c1.6-0.9,3.7-0.3,4.6,1.3c0.4,0.8,0.5,1.7,0.3,2.6    C49.5,36.1,48.9,36.8,48.2,37.2z"/></g></g><g id="Weibo"/></svg>